<?xml version="1.0" encoding="utf-8"?>
<!-- Generator: Adobe Illustrator 22.0.0, SVG Export Plug-In . SVG Version: 6.00 Build 0)  -->
<svg version="1.1" id="Layer_1" xmlns="http://www.w3.org/2000/svg" xmlns:xlink="http://www.w3.org/1999/xlink" x="0px" y="0px"
	 width="35.6px" height="44.2px" viewBox="0 0 35.6 44.2" style="enable-background:new 0 0 35.6 44.2;" xml:space="preserve">
<style type="text/css">
	.st0{fill:#C1C0C0;}
</style>
<path class="st0" d="M31.1,17.8v-5.5h-0.1C30.6,5.5,24.8,0,17.8,0S5,5.5,4.5,12.4H4.4v5.5C1.9,18.1,0,20.2,0,22.8v16.4
	c0,2.8,2.2,5,5,5h25.6c2.8,0,5-2.2,5-5V22.8C35.6,20.2,33.6,18.1,31.1,17.8z M17.8,4c5.2,0,9.4,4.2,9.4,9.4v4.4H8.4v-4.4
	C8.4,8.2,12.6,4,17.8,4z"/>
</svg>
