<?xml version="1.0" encoding="utf-8"?>
<!-- Generator: Adobe Illustrator 22.0.0, SVG Export Plug-In . SVG Version: 6.00 Build 0)  -->
<svg version="1.1" id="Layer_1" xmlns="http://www.w3.org/2000/svg" xmlns:xlink="http://www.w3.org/1999/xlink" x="0px" y="0px"
	 width="740.4px" height="350.9px" viewBox="0 0 740.4 350.9" fill="#fff" style="enable-background:new 0 0 740.4 350.9;" xml:space="preserve"
	>
<g>
	<path d="M157.6,0v68.4h68.4V0H157.6z M187.2,33.8l-23.6,23.6V10.2L187.2,33.8z M167.9,6H215l-23.6,23.6L167.9,6z M191.4,38
		l24.4,24.4h-48.7L191.4,38z M195.7,33.8l24.4-24.4v48.7L195.7,33.8z"/>
	<path d="M79.7,0.6V69h68.4V0.6H79.7z M137.9,6.6L85.7,58.8V6.6H137.9z M89.9,63l52.2-52.2V63H89.9z"/>
	<path d="M0,0.6V69h68.4V0.6H0z M29.6,34.4L6,57.9V10.8L29.6,34.4z M10.2,6.6h47.1L33.8,30.1L10.2,6.6z M33.8,38.6L58.2,63H9.4
		L33.8,38.6z M38,34.4L62.4,10v48.7L38,34.4z"/>
	<g>
		<path d="M39.4,179.1c-4.1,0-6.7-0.4-10-1.3c0,16.4,0,23.4,3.4,26.3c2.2,1.8,5.9,2.1,12,2.1c0.1,0.8,0.3,1.6,0.3,2.2
			c0,1.8-0.5,3-0.5,3c-9.1-0.4-18.7-0.7-21.4-0.7c-2.6,0-10.8,0.3-18.1,0.7c0,0-0.5-1.3-0.5-3c0-0.7,0.1-1.4,0.3-2.2
			c4.6,0,7.4-0.1,9.2-2.1c2.9-3.3,3-11.8,3-34.3c0-20.8-0.1-29.4-2.5-33.1c-1.7-2.6-4.7-2.8-9.7-2.8c0,0-0.3-0.9-0.3-2.2
			c0-0.9,0.1-2,0.5-3c7.4,0.4,15.6,0.7,18.3,0.7c5.6,0,11.4-0.7,18.1-0.7c19.3,0,30.1,11.4,30.1,23.8
			C71.5,170.5,55.4,179.1,39.4,179.1z M38.6,173.9c13,0,18.9-7,18.9-21.7c0-11.3-6.2-18.4-19.6-18.4c-3,0-5,0-6.2,2.1
			c-2.1,3.4-2.2,12.6-2.4,36.8C31.9,173.5,35.6,173.9,38.6,173.9z"/>
		<path d="M79.3,199.7c0-10.4,8.4-15.6,31.1-19.2v-2.6c0-9.2-4.7-12.5-11.4-12.5c-4.7,0-10,1.6-14.6,3.7c-1.4,0-1.7-1.8-1.7-3.7
			c0-1.1,0.1-1.6,0.3-2c3.7-3.4,9.7-6.6,19.6-6.6c12.7,0,17.7,8.4,18.7,13.5c-0.9,9.5-1.2,13.8-1.2,21.1c0,10.8,1.1,11.6,8,13.1
			c0.4,0.8,0.5,1.6,0.5,2.4c0,0.7-0.1,1.3-0.3,2.1c-2.6,1.4-5.8,3.2-8.7,3.2c-3.5,0-6.7-2-8.5-6.8c-0.1-0.1-0.5-0.4-0.9-0.4
			c-0.1,0-0.8,0-0.9,0.1c-4.9,5.3-8.8,7.5-15.5,7.5C85.2,212.7,79.3,207,79.3,199.7z M110.3,187.9c-2.6-0.5-5.3-0.7-7.2-0.7
			c-8.9,0-12.6,2.6-12.6,8.7c0,5.4,3.4,8.9,7.4,8.9c4.1,0,8.1-2.5,12.1-5C110.2,196.8,110.3,191.4,110.3,187.9z"/>
		<path d="M142,203.2c0.8-3.8,1.1-8.4,1.3-14.2c0.3-5.5,0.3-12.2,0.3-21.9c-4.7-0.1-8.9-0.5-9.2-0.9c0,0-0.3-0.9-0.3-2.5
			c0-0.7,0-0.9,0.1-1.3c0.1-0.5,7-3.7,8.7-5.4c2-2,5-7.5,7.5-13.7c0.7-0.3,1.7-0.4,2.6-0.4c1.4,0,1.7,0.5,2,1.8
			c-0.3,3.8-0.5,10.8-0.7,15.5c8.3,0,13.7-0.4,16-0.7c0.4,0.4,0.5,1.1,0.5,1.8c0,2-0.7,4.9-2.1,5.8c-4.3-0.1-10.9-0.1-14.7-0.1
			c0,0-0.3,13.4-0.3,28.2c0,6.7,3.5,9.2,8,9.2c3.4,0,6.7-0.7,10-2c1.1,0.3,1.4,1.3,1.4,2.5c0,1.2-0.4,2.5-0.8,3.2
			c-2,1.6-7.5,4.5-14.7,4.5C149.9,212.7,144.2,208.9,142,203.2z"/>
		<path d="M184,211.4c0,0-0.4-0.7-0.4-2.5c0-0.5,0-1.6,0.1-2.1c1.2-0.5,2.1-0.9,2.9-2.2c1.2-2.1,1.8-6.2,1.8-16
			c0-12.5-0.1-18.1-2.8-20.5c-1.3-1.1-3.2-1.4-5.8-1.4c0,0-0.7-1.3-0.7-3c0-0.5,0-1.7,0.1-2.2c5.1,0,12.5-2.6,15.4-3.8
			c1.3,0.3,2,1.3,2,1.3c0.4,1.8,0.8,5.1,1.1,7.4c0,0,0.1,0.4,0.7,0.4c0.1,0,0.4,0,0.7-0.1c1.1-0.4,7.5-9.6,11.6-9.6
			c4.9,0,10.5,1.7,10.5,3.3c0,4.1-2,9.5-4.6,9.5c-2.4,0-5.8-1.7-9.1-1.7c-5.5,0-8.9,3.9-8.9,13.1c0,15.1,0,21.1,2.9,23.5
			c1.8,1.6,5,1.6,9.9,1.6c0.1,0.5,0.1,1.6,0.1,2.1c0,1.8-0.4,3.2-0.4,3.2c-5.4-0.4-12.1-0.7-15-0.7C193.2,210.7,187.8,211,184,211.4
			z"/>
		<path d="M231.6,211.4c0,0-0.4-0.7-0.4-2.5c0-0.5,0-1.6,0.3-2.1c1.2-0.5,2.1-1.2,2.9-2.6c1.6-2.9,2.4-9.2,2.4-24.6
			c0-6.2-0.4-9.6-1.8-11.4c-1.3-1.6-3.4-1.8-6.6-1.8c0,0-0.7-1.3-0.7-3c0-0.5,0.3-1.7,0.4-2.2c5.9,0,15.2-2,18.9-3.5
			c1.3,0.3,2,2,2,2c-1.7,8-2.4,18-2.4,35.3c0,5.5,0.3,8.4,1.8,9.9c1.3,1.2,3.5,1.4,7.2,1.4c0,2.9-0.4,5.3-0.4,5.3s-7.6-0.7-12.9-0.7
			C237.1,210.7,231.6,211.4,231.6,211.4z M236,136.9c0-3.8,3.5-8.3,7.4-8.3c4.3,0,7.9,4.9,7.9,9.3c0,3-3.9,7.1-7.5,7.1
			C240.4,145,236,140.8,236,136.9z"/>
		<path d="M264.5,186.8c0-18.8,13.8-30,29.6-30c5,0,15.5,2.6,15.5,7.2c0,2.5-1.4,10.4-2.5,10.9c-0.8,0.4-1.6,0.5-2.5,0.5
			c-0.8,0-1.4-0.1-2.2-0.3c-2-7.4-4.9-12.5-12.1-12.5c-9.2,0-13.3,8.8-13.3,18.7c0,15.2,7.1,24,18.9,24c3.7,0,6.6-0.5,10.6-1.8
			c0.8,0.1,1.2,1.2,1.2,2.2c0,1.6-0.1,3.2-0.5,3.7c-3.9,1.8-8.1,3.2-15,3.2C277.6,212.7,264.5,204.3,264.5,186.8z"/>
		<path d="M320.4,211.4c0,0-0.4-0.7-0.4-2.5c0-0.5,0-1.6,0.1-2.1c1.1-0.4,2-0.8,2.8-2.5c1.3-3,2-10.2,2-29.2
			c0-26.4-0.1-35.5-2.4-38.9c-1.3-2-3.3-2-6.4-2.4c0,0-0.4-1.3-0.4-2.9c0-0.5,0-1.7,0.1-2.4c5.6-0.3,14.2-2.4,19.2-4.6
			c1.3,0.8,2,2,2,2c-2,6.2-2,15.9-2,53.3c0,0.5,0.3,1.1,0.8,1.1c5.8,0,14.3-7.9,14.3-15.1c0-1.8-2.4-2.4-2.6-2.9
			c-0.1-0.4-0.1-1.1-0.1-1.8c0-0.7,0.1-1.7,0.4-2.1c0,0,7,0.4,12.2,0.4c6.3,0,12.6-0.7,12.6-0.7c0.4,0.7,0.5,2,0.5,2.6
			c0,1.6-0.7,2.6-0.7,2.6c-7.6,0-11.3,2.8-23.1,14.1c-0.3,0.3-0.4,0.9-0.4,1.2c0,0.4,0.1,1.1,0.4,1.4c10,13.9,16.2,20.5,20.4,23.5
			c2.8,2,4.7,2.5,6.6,2.5c0.4,0.7,0.5,1.7,0.5,2.4c0,1.6-0.8,2.9-0.8,2.9c-3.2-0.4-8.5-0.7-11.8-0.7c-1.7,0-4.9,0-6.7,0.1
			c-2.6-6.3-8-13.7-16.8-24.2c-0.3-0.4-0.7-0.5-1.1-0.5c-1.7,0-4.6,1.8-4.6,4.3c0.3,8.1,0.5,12.2,1.8,14.1c0.9,1.3,2.5,1.6,5,1.6
			c0.1,0.5,0.1,1.6,0.1,2.1c0,1.8-0.4,3.2-0.4,3.2c-3.3-0.4-8.3-0.7-11.2-0.7S323,211,320.4,211.4z"/>
		<path d="M410.3,211.4c-0.4-1.2-0.4-2.4-0.4-3.3c0-1.2,0.1-2,0.1-2c4.6,0,8.5-2.2,9.6-4.7c7.2-16.9,11.3-30.3,21.7-56.2
			c1.2-3.2,1.4-4.5,1.4-6c0-1.8-1.6-3.3-1.6-5c0-1.1,0.5-1.7,2-1.8c2.1-0.1,4.6-2.9,6.2-4.3c1.4-1.3,3-2.4,4.1-2.4
			c0.8,0,1.7,0.5,2,1.2c16,41.8,26.9,70,29.3,75.4c1.3,2.8,5.1,3.9,8.7,3.9c0,0,0.1,0.8,0.1,2c0,0.9,0,2.1-0.4,3.3
			c-7.4-0.4-15.6-0.7-18.3-0.7c-2.8,0-9.9,0.3-15.8,0.7c-0.4-1.2-0.4-2.4-0.4-3.3c0-1.2,0.1-2,0.1-2c6.3,0,10.8-0.3,10.8-3.4
			c0-1.1-1.2-6.8-7.5-22.7c-1.2-0.1-7.5-0.1-13.4-0.1c-5.1,0-9.5,0-11.6,0.1h-0.8c-6.2,17.1-6.6,19.4-6.6,21c0,2.5,2.9,5.1,8.8,5.1
			c0,0,0.1,0.8,0.1,2c0,0.9,0,2.1-0.4,3.3c-5.8-0.4-12.7-0.7-15.5-0.7C420.1,210.7,414.4,211,410.3,211.4z M460.1,173.9
			c-3.3-8.8-7.2-19.4-10.1-29.2c-0.1-0.3-0.9-0.4-1.1-0.4c-0.1,0-0.4,0.1-0.5,0.4c-2.9,9.6-6.6,19-10.2,29.3c1.7,0.1,6,0.1,10.5,0.1
			C452.8,174.2,458.3,174.1,460.1,173.9z"/>
		<path d="M501.8,211.4c0,0-0.4-0.7-0.4-2.5c0-0.5,0-1.6,0.1-2.1c1.2-0.4,2.1-0.8,2.9-2.9c1.2-3.3,1.8-10.6,1.8-28.8
			c0-26-0.1-35.2-2.4-38.8c-1.3-2-3.3-2.2-6.4-2.5c0,0-0.4-1.3-0.4-2.9c0-0.5,0-1.7,0.1-2.4c5.6-0.3,14.6-2.4,19.8-4.6
			c1.3,0.8,2,2,2,2c-2.4,7.2-2.5,20.1-2.5,48.3c0,19.6,0.4,27.2,3.2,30.1c1.3,1.4,3.3,1.7,5.9,1.7c0.1,0.5,0.1,1.6,0.1,2.1
			c0,1.8-0.4,3.2-0.4,3.2c-4.7-0.4-10.9-0.7-13.8-0.7C508.6,210.7,504.3,211,501.8,211.4z"/>
		<path d="M537.4,211.4c0,0-0.4-0.7-0.4-2.5c0-0.5,0-1.6,0.1-2.1c1.2-0.5,2.1-0.9,2.8-2.2c1.2-2.1,1.8-6.4,1.8-16.4
			c0-5.4-0.1-12.2-0.4-21c0,0-5.4-0.4-8.5-0.4c-0.4-0.9-0.7-1.3-0.7-2.6c0-0.7,0-1.8,0.3-2.4c0.7-0.3,8.8-2.2,8.8-2.2
			c0-3.4-0.3-8.9-0.7-12.1c0-6,16.9-23.4,23.9-23.4c3.9,0,12.1,1.2,12.1,3.7c0,4.7-0.7,8.5-3.9,8.5c-3.9,0-5.9-2-11.3-2
			c-7.4,0-9.9,4.9-9.9,11.2c0,2.6,0.1,12.7,0.3,15.1c5,0,7.9,0,15-0.4c0.9,0.4,1.1,1.6,1.1,2.8c0,1.8-0.3,3.5-0.5,4.3
			c0,0-7.9-0.1-15.4-0.1c0,25,0,33.6,3.3,36.9c1.8,1.8,4.6,2,9.1,2.1c0.1,0.5,0.1,1.6,0.1,2.1c0,1.8-0.4,3.2-0.4,3.2
			c-6-0.4-13.3-0.7-16.2-0.7C544.9,210.7,540.3,211,537.4,211.4z"/>
		<path d="M579.3,211.4c0,0-0.4-0.7-0.4-2.5c0-0.5,0-1.6,0.1-2.1c1.2-0.5,2.1-0.9,2.9-2.2c1.2-2.1,1.8-6.2,1.8-16
			c0-12.5-0.1-18.1-2.8-20.5c-1.3-1.1-3.2-1.4-5.8-1.4c0,0-0.7-1.3-0.7-3c0-0.5,0-1.7,0.1-2.2c5.1,0,12.5-2.6,15.4-3.8
			c1.3,0.3,2,1.3,2,1.3c0.4,1.8,0.8,5.1,1.1,7.4c0,0,0.1,0.4,0.7,0.4c0.1,0,0.4,0,0.7-0.1c1.1-0.4,7.5-9.6,11.6-9.6
			c4.9,0,10.5,1.7,10.5,3.3c0,4.1-2,9.5-4.6,9.5c-2.4,0-5.8-1.7-9.1-1.7c-5.5,0-8.9,3.9-8.9,13.1c0,15.1,0,21.1,2.9,23.5
			c1.8,1.6,5,1.6,9.9,1.6c0.1,0.5,0.1,1.6,0.1,2.1c0,1.8-0.4,3.2-0.4,3.2c-5.4-0.4-12.1-0.7-15-0.7
			C588.5,210.7,583.1,211,579.3,211.4z"/>
		<path d="M622.7,186.3c0-16.9,11.7-29.4,26.1-29.4c14.2,0,19.3,8.5,23.1,20.5c-3.3,5.3-27.1,7.9-36.8,10.1c0.7,8.7,5.6,18,21.5,18
			c3.9,0,7.6-0.7,11.6-1.8c1.2,0.3,1.6,2.2,1.6,3.8c0,0.8-0.1,1.4-0.3,1.8c-5.5,2.4-9.9,3.4-17.5,3.4
			C637.1,212.7,622.7,203.4,622.7,186.3z M657.6,172.1c0-5.4-4.3-9.6-9.5-9.6c-8.3,0-12.1,6.8-12.9,17.1c2.6,0.5,7.8,0.7,9.7,0.7
			C653.9,180.2,657.6,178.1,657.6,172.1z"/>
		<path d="M681.6,186.9c0-16.9,11.4-30.1,26.8-30.1c4.3,0,7.6,0.7,11.3,1.8c0.4,0.1,0.7,0.1,0.9,0.1c1.2,0,2.1-0.8,2.1-1.8
			c0-12.7-0.1-18.1-1.8-20.5c-1.3-1.8-3.5-2-7.6-2c0,0-0.5-1.1-0.5-2.6c0-0.5,0-2,0.1-2.6c5.6-0.3,14.3-2.6,19.3-5.3
			c1.3,0.8,2,2,2,2c-1.4,5-1.7,10-1.7,50.3c0,16,0,22.9,2.4,25.7c1.2,1.3,2.9,1.8,5.3,2c0.3,0.9,0.4,1.7,0.4,2.6
			c0,0.7,0,1.8-0.1,2.4c-7.2,0.4-10.1,2-13.9,3c-0.9-0.1-1.4-0.4-2-1.3c0,0,0-2.4-0.7-5.9c0,0-0.3-0.4-0.9-0.4c-0.1,0-0.5,0-0.8,0.1
			c-5.8,6.6-13,8.1-17.3,8.1C692.1,212.7,681.6,203,681.6,186.9z M722.7,195.6c0-8.5,0-11.4-0.3-15.8c-0.7-11-6.8-17.1-15.4-17.1
			c-7.8,0-13.9,5.9-13.9,19c0,12.3,5.5,22.3,16,22.3C713.6,204.1,722.7,201.1,722.7,195.6z"/>
		<path d="M5,349.6c0,0-0.5-1.2-0.5-3c0-0.7,0.1-1.4,0.3-2.2c4.5,0,7.4,0,9.2-2c3-3.3,3-11.7,3-34.2c0-23-0.1-31.4-3.3-34.4
			c-1.8-1.7-4.6-1.7-8.9-1.7c0,0-0.3-0.9-0.3-2.2c0-0.9,0.1-2,0.5-3c8.8,0.4,18.1,0.7,20.9,0.7c11.3,0,30.6-0.3,43.3-0.7
			c0,11.8-0.3,20.5-0.3,20.5s-1.6,0.8-3.9,0.8c-0.5,0-1.2,0-2.1-0.3c-1.7-9.7-5-13.3-10.6-14.4c-2.9-0.5-6.3-0.7-15.9-0.7
			c-2.2,0-3.8,0.3-4.9,1.6c-2,2.6-2.1,10.1-2.1,30.5c2.5,0.3,7.2,0.3,9.9,0.3c7.1,0,12.5-1.3,12.9-10.5c0.7-0.1,2.2-0.3,2.9-0.3
			c1.8,0,3.3,0.7,3.3,0.7s-0.5,5.5-0.5,12.3c0,7.4,0.5,13.5,0.5,13.5s-1.4,0.7-3.3,0.7c-0.7,0-2.1-0.1-2.9-0.3
			c-0.1-7.9-3.4-10.6-12.2-10.6c-2.9,0-8,0.1-10.5,0.3c0,21.4,0,28.9,2.1,31.5c1.1,1.3,2.6,1.3,4.9,1.3c10.2,0,13.4,0,16.4-0.7
			c5.8-1.2,10.6-5.9,12.5-16.2c0.9-0.1,1.6-0.1,2.1-0.1c2.4,0,4.2,0.8,4.2,0.8s-2.2,10.4-2.2,22.2c-13.4-0.4-33-0.8-43.7-0.8
			C20.6,348.9,5.4,349.6,5,349.6z"/>
		<path d="M83.1,325.1c0-16.9,11.4-30.1,26.8-30.1c4.3,0,7.6,0.7,11.3,1.8c0.4,0.1,0.7,0.1,0.9,0.1c1.2,0,2.1-0.8,2.1-1.8
			c0-12.7-0.1-18.1-1.8-20.5c-1.3-1.8-3.5-2-7.6-2c0,0-0.5-1.1-0.5-2.6c0-0.5,0-2,0.1-2.6c5.6-0.3,14.3-2.6,19.3-5.3
			c1.3,0.8,2,2,2,2c-1.4,5-1.7,10-1.7,50.3c0,16,0,22.9,2.4,25.7c1.2,1.3,2.9,1.8,5.3,2c0.3,0.9,0.4,1.7,0.4,2.6
			c0,0.7,0,1.8-0.1,2.4c-7.2,0.4-10.1,2-13.9,3c-0.9-0.1-1.4-0.4-2-1.3c0,0,0-2.4-0.7-5.9c0,0-0.3-0.4-0.9-0.4c-0.1,0-0.5,0-0.8,0.1
			c-5.8,6.6-13,8.1-17.3,8.1C93.7,350.9,83.1,341.2,83.1,325.1z M124.3,333.8c0-8.5,0-11.4-0.3-15.8c-0.7-11-6.8-17.1-15.4-17.1
			c-7.8,0-13.9,5.9-13.9,19c0,12.3,5.5,22.3,16,22.3C115.2,342.4,124.3,339.3,124.3,333.8z"/>
		<path d="M150.8,324.5c0-16.9,11.7-29.4,26.1-29.4c14.2,0,19.3,8.5,23.1,20.5c-3.3,5.3-27.1,7.9-36.8,10.1c0.7,8.7,5.6,18,21.5,18
			c3.9,0,7.6-0.7,11.6-1.8c1.2,0.3,1.6,2.2,1.6,3.8c0,0.8-0.1,1.4-0.3,1.8c-5.5,2.4-9.9,3.4-17.5,3.4
			C165.1,350.9,150.8,341.6,150.8,324.5z M185.6,310.3c0-5.4-4.3-9.6-9.5-9.6c-8.3,0-12.1,6.8-12.9,17.1c2.6,0.5,7.8,0.7,9.7,0.7
			C181.9,318.4,185.6,316.3,185.6,310.3z"/>
		<path d="M211.5,349.6c0,0-0.4-0.7-0.4-2.5c0-0.5,0-1.6,0.1-2.1c1.2-0.4,2.1-0.8,2.9-2.9c1.2-3.3,1.8-10.6,1.8-28.8
			c0-26-0.1-35.2-2.4-38.8c-1.3-2-3.3-2.2-6.4-2.5c0,0-0.4-1.3-0.4-2.9c0-0.5,0-1.7,0.1-2.4c5.6-0.3,14.6-2.4,19.8-4.6
			c1.3,0.8,2,2,2,2c-2.4,7.2-2.5,20.1-2.5,48.3c0,19.6,0.4,27.2,3.2,30.1c1.3,1.4,3.3,1.7,5.9,1.7c0.1,0.5,0.1,1.6,0.1,2.1
			c0,1.8-0.4,3.2-0.4,3.2c-4.7-0.4-10.9-0.7-13.8-0.7C218.3,348.9,214,349.2,211.5,349.6z"/>
		<path d="M249.7,346.8c-1.4-0.7-2-2-2-2c0.5-5.5,1.1-13,1.1-38.4c0-21.7-0.1-29.3-2.2-32.3c-1.1-1.6-2.8-1.8-5.3-2.2
			c0,0-0.4-1.1-0.4-2.6c0-0.5,0-1.7,0.1-2.4c6-0.4,13.5-2.5,18-4.7c1.3,0.8,2,2,2,2c-1.8,7.5-2.4,14.3-2.4,38c0,0.3,0.4,0.5,0.9,0.5
			c0.3,0,0.5,0,0.8-0.1c3.4-2.5,8-7.5,15.4-7.5c12.2,0,23.8,8.8,23.8,25c0,19.3-14.1,30.9-29.2,30.9
			C262.2,350.9,255.7,348.8,249.7,346.8z M287.7,325.3c0-13.1-4.1-21.7-16.2-21.7c-5.8,0-12.5,2.9-12.5,7.9c0,8.8,0,17.5,0.3,21.7
			c0.4,7.6,5.8,11.8,13,11.8C280.3,345,287.7,339.2,287.7,325.3z"/>
		<path d="M309.2,337.9c0-10.4,8.4-15.6,31.1-19.2v-2.6c0-9.2-4.7-12.5-11.4-12.5c-4.7,0-10,1.6-14.6,3.7c-1.4,0-1.7-1.8-1.7-3.7
			c0-1.1,0.1-1.6,0.3-2c3.7-3.4,9.7-6.6,19.6-6.6c12.7,0,17.7,8.4,18.7,13.5c-0.9,9.5-1.2,13.8-1.2,21.1c0,10.8,1.1,11.6,8,13.1
			c0.4,0.8,0.5,1.6,0.5,2.4c0,0.7-0.1,1.3-0.3,2.1c-2.6,1.4-5.8,3.2-8.7,3.2c-3.5,0-6.7-2-8.5-6.8c-0.1-0.1-0.5-0.4-0.9-0.4
			c-0.1,0-0.8,0-0.9,0.1c-4.9,5.3-8.8,7.5-15.5,7.5C315.1,350.9,309.2,345.2,309.2,337.9z M340.2,326.1c-2.6-0.5-5.3-0.7-7.2-0.7
			c-8.9,0-12.6,2.6-12.6,8.7c0,5.4,3.4,8.9,7.4,8.9c4.1,0,8.1-2.5,12.1-5C340.1,335,340.2,329.6,340.2,326.1z"/>
		<path d="M366.1,325c0-18.8,13.8-30,29.6-30c5,0,15.5,2.6,15.5,7.2c0,2.5-1.4,10.4-2.5,10.9c-0.8,0.4-1.6,0.5-2.5,0.5
			c-0.8,0-1.4-0.1-2.2-0.3c-2-7.4-4.9-12.5-12.1-12.5c-9.2,0-13.3,8.8-13.3,18.7c0,15.2,7.1,24,18.9,24c3.7,0,6.6-0.5,10.6-1.8
			c0.8,0.1,1.2,1.2,1.2,2.2c0,1.6-0.1,3.2-0.5,3.7c-3.9,1.8-8.1,3.2-15,3.2C379.1,350.9,366.1,342.5,366.1,325z"/>
		<path d="M421.9,349.6c0,0-0.4-0.7-0.4-2.5c0-0.5,0-1.6,0.1-2.1c1.1-0.4,2-0.8,2.8-2.5c1.3-3,2-10.2,2-29.2c0-26.8-0.1-35.7-2.5-39
			c-1.3-1.7-3.3-2-6.3-2.2c0,0-0.4-1.3-0.4-2.9c0-0.5,0-1.7,0.1-2.4c5.6-0.3,14.2-2.4,19.2-4.6c1.3,0.8,2,2,2,2
			c-2.4,7.2-2.5,15.4-2.5,39c0.1,0.1,0.5,0.4,0.9,0.4c0.1,0,0.9,0,1.1-0.1c3.2-2.6,8.4-8.4,17.5-8.4c12.7,0,17.2,8.4,18.1,13.5
			c-0.7,5.9-1.2,16.7-1.2,23.9c0,5.6,0.7,8.8,3,10.4c1.4,0.9,3.4,1.4,6,1.4c0.1,0.5,0.1,1.6,0.1,2.1c0,1.8-0.4,3.2-0.4,3.2
			c-3.5-0.4-8.8-0.7-11.7-0.7c-2.9,0-7.9,0.3-11.2,0.7c0,0-0.4-0.7-0.4-2.5c0-0.5,0-1.6,0.1-2.1c3-0.8,3.2-2.1,3.9-14.2
			c0.3-4.1,0.3-5,0.3-14.1c0-8.4-5.5-12.5-13-12.5c-6.2,0-12.6,2.9-12.6,8.3c0,19.6,0.1,27.2,2.8,30.1c1.3,1.4,3.2,1.7,5.9,1.7
			c0.1,0.5,0.1,1.6,0.1,2.1c0,1.8-0.4,3.2-0.4,3.2c-3.9-0.4-9.5-0.7-12.3-0.7S424.9,349.2,421.9,349.6z"/>
		<path d="M489.6,324.5c0-16.9,11.7-29.4,26.1-29.4c14.2,0,19.3,8.5,23.1,20.5c-3.3,5.3-27.1,7.9-36.8,10.1c0.7,8.7,5.6,18,21.5,18
			c3.9,0,7.6-0.7,11.6-1.8c1.2,0.3,1.6,2.2,1.6,3.8c0,0.8-0.1,1.4-0.3,1.8c-5.5,2.4-9.9,3.4-17.5,3.4
			C503.9,350.9,489.6,341.6,489.6,324.5z M524.4,310.3c0-5.4-4.3-9.6-9.5-9.6c-8.3,0-12.1,6.8-12.9,17.1c2.6,0.5,7.8,0.7,9.7,0.7
			C520.7,318.4,524.4,316.3,524.4,310.3z"/>
		<path d="M551.7,349.6c0,0-0.4-0.7-0.4-2.5c0-0.5,0-1.6,0.1-2.1c1.2-0.5,2.1-0.9,2.9-2.2c1.2-2.1,1.8-6.2,1.8-16
			c0-12.5-0.1-18.1-2.8-20.5c-1.3-1.1-3.2-1.4-5.8-1.4c0,0-0.7-1.3-0.7-3c0-0.5,0-1.7,0.1-2.2c5.1,0,12.5-2.6,15.4-3.8
			c1.3,0.3,2,1.3,2,1.3c0.4,1.8,0.8,5.1,1.1,7.4c0,0,0.1,0.4,0.7,0.4c0.1,0,0.4,0,0.7-0.1c1.1-0.4,7.5-9.6,11.6-9.6
			c4.9,0,10.5,1.7,10.5,3.3c0,4.1-2,9.5-4.6,9.5c-2.4,0-5.8-1.7-9.1-1.7c-5.5,0-8.9,3.9-8.9,13.1c0,15.1,0,21.1,2.9,23.5
			c1.8,1.6,5,1.6,9.9,1.6c0.1,0.5,0.1,1.6,0.1,2.1c0,1.8-0.4,3.2-0.4,3.2c-5.4-0.4-12.1-0.7-15-0.7
			C560.9,348.9,555.5,349.2,551.7,349.6z"/>
	</g>
</g>
</svg>
