<?xml version="1.0" encoding="utf-8"?>
<!-- Generator: Adobe Illustrator 20.1.0, SVG Export Plug-In . SVG Version: 6.00 Build 0)  -->
<svg version="1.1" id="Layer_1" xmlns="http://www.w3.org/2000/svg" xmlns:xlink="http://www.w3.org/1999/xlink" x="0px" y="0px"
	 viewBox="0 0 46 46" style="enable-background:new 0 0 46 46;" xml:space="preserve">
<style type="text/css">
	.st0{enable-background:new    ;}
	.st1{fill:#2670B8;}
</style>
<g class="st0">
	<path class="st1" d="M44.2,1.7c0.5,0.5,0.7,1,0.7,1.7v38.9c0,0.7-0.2,1.3-0.7,1.7c-0.5,0.5-1,0.7-1.7,0.7H3.5
		c-0.7,0-1.3-0.2-1.7-0.7c-0.5-0.5-0.7-1-0.7-1.7V3.4c0-0.7,0.2-1.3,0.7-1.7C2.3,1.2,2.9,1,3.5,1h38.9C43.2,1,43.7,1.2,44.2,1.7z
		 M13.5,13.5c0.7-0.7,1.1-1.6,1.1-2.7c0-1-0.4-1.9-1.1-2.7c-0.7-0.7-1.6-1.1-2.7-1.1S8.9,7.4,8.2,8.2c-0.7,0.7-1.1,1.6-1.1,2.7
		c0,1,0.4,1.9,1.1,2.7c0.7,0.7,1.6,1.1,2.7,1.1S12.8,14.2,13.5,13.5z M14.1,17.4H7.6v20.9h6.5V17.4z M38.4,26.9
		c0-2.1-0.2-3.8-0.6-5.1c-0.5-1.6-1.2-2.8-2.3-3.6c-1.2-0.9-2.9-1.3-4.9-1.3c-1.5,0-2.8,0.4-3.9,1.1c-1,0.6-1.7,1.4-2.2,2.3h-0.1
		v-2.9h-6.2v20.9h6.5V28c0-1.6,0.2-2.9,0.7-3.7c0.6-1.1,1.7-1.6,3.2-1.6c1,0,1.8,0.3,2.4,0.9c0.5,0.5,0.7,1.2,0.9,2.1
		c0.1,0.6,0.2,1.4,0.2,2.5v10.2h6.5V26.9z"/>
</g>
</svg>
