<?xml version="1.0" encoding="utf-8"?>
<!-- Generator: Adobe Illustrator 20.1.0, SVG Export Plug-In . SVG Version: 6.00 Build 0)  -->
<svg version="1.1" id="Layer_1" xmlns="http://www.w3.org/2000/svg" xmlns:xlink="http://www.w3.org/1999/xlink" x="0px" y="0px"
	 viewBox="0 0 1052.2 88.8" style="enable-background:new 0 0 1052.2 88.8;" xml:space="preserve">
<style type="text/css">
	.st0{fill:#F1F0F0;}
</style>
<g>
	<path class="st0" d="M190.4,4.3v82.6H273V4.3H190.4z M226.1,45.1l-28.5,28.5v-57L226.1,45.1z M202.8,11.5h56.9l-28.5,28.5
		L202.8,11.5z M231.2,50.2l29.5,29.5h-58.8L231.2,50.2z M236.4,45.1l29.5-29.5v58.8L236.4,45.1z"/>
	<path class="st0" d="M96.3,5v82.6h82.6V5H96.3z M166.6,12.3l-63.1,63.1V12.3H166.6z M108.6,80.4l63.1-63.1v63.1H108.6z"/>
	<path class="st0" d="M0,5v82.6h82.6V5H0z M35.8,45.9L7.2,74.2V17.3L35.8,45.9z M12.3,12.3h56.9L40.8,40.7L12.3,12.3z M40.8,50.9
		l29.5,29.5H11.4L40.8,50.9z M45.9,45.9l29.5-29.5v58.8L45.9,45.9z"/>
	<path class="st0" d="M351,55.2c-4.1,0-6.7-0.4-10-1.3c0,16.4,0,23.4,3.4,26.3c2.2,1.8,5.9,2.1,12,2.1c0.1,0.8,0.3,1.6,0.3,2.2
		c0,1.8-0.5,3-0.5,3c-9.1-0.4-18.7-0.7-21.4-0.7c-2.6,0-10.8,0.3-18.1,0.7c0,0-0.5-1.3-0.5-3c0-0.7,0.1-1.4,0.3-2.2
		c4.6,0,7.4-0.1,9.2-2.1c2.9-3.3,3-11.8,3-34.3c0-20.8-0.1-29.4-2.5-33.1c-1.7-2.6-4.7-2.8-9.7-2.8c0,0-0.3-0.9-0.3-2.2
		c0-0.9,0.1-2,0.5-3c7.4,0.4,15.6,0.7,18.3,0.7c5.6,0,11.4-0.7,18.1-0.7c19.3,0,30.1,11.4,30.1,23.8C383.1,46.6,367,55.2,351,55.2z
		 M350.2,50c13,0,18.9-7,18.9-21.7c0-11.3-6.2-18.4-19.6-18.4c-3,0-5,0-6.2,2.1c-2.1,3.4-2.2,12.6-2.4,36.8
		C343.5,49.6,347.2,50,350.2,50z"/>
	<path class="st0" d="M390.9,75.8c0-10.4,8.4-15.6,31.1-19.2V54c0-9.2-4.7-12.5-11.4-12.5c-4.7,0-10,1.6-14.6,3.7
		c-1.4,0-1.7-1.8-1.7-3.7c0-1.1,0.1-1.6,0.3-2c3.7-3.4,9.7-6.6,19.6-6.6c12.7,0,17.7,8.4,18.7,13.5c-0.9,9.5-1.2,13.8-1.2,21.1
		c0,10.8,1.1,11.6,8,13.1c0.4,0.8,0.5,1.6,0.5,2.4c0,0.7-0.1,1.3-0.3,2.1c-2.6,1.4-5.8,3.2-8.7,3.2c-3.5,0-6.7-2-8.5-6.8
		c-0.1-0.1-0.5-0.4-0.9-0.4c-0.1,0-0.8,0-0.9,0.1c-4.9,5.3-8.8,7.5-15.5,7.5C396.8,88.8,390.9,83.1,390.9,75.8z M421.9,64
		c-2.6-0.5-5.3-0.7-7.2-0.7c-8.9,0-12.6,2.6-12.6,8.7c0,5.4,3.4,8.9,7.4,8.9c4.1,0,8.1-2.5,12.1-5C421.8,72.9,421.9,67.5,421.9,64z"
		/>
	<path class="st0" d="M453.6,79.3c0.8-3.8,1.1-8.4,1.3-14.2c0.3-5.5,0.3-12.2,0.3-21.9c-4.7-0.1-8.9-0.5-9.2-0.9
		c0,0-0.3-0.9-0.3-2.5c0-0.7,0-0.9,0.1-1.3c0.1-0.5,7-3.7,8.7-5.4c2-2,5-7.5,7.5-13.7c0.7-0.3,1.7-0.4,2.6-0.4c1.4,0,1.7,0.5,2,1.8
		c-0.3,3.8-0.5,10.8-0.7,15.5c8.3,0,13.7-0.4,16-0.7c0.4,0.4,0.5,1.1,0.5,1.8c0,2-0.7,4.9-2.1,5.8c-4.3-0.1-10.9-0.1-14.7-0.1
		c0,0-0.3,13.4-0.3,28.2c0,6.7,3.5,9.2,8,9.2c3.4,0,6.7-0.7,10-2c1.1,0.3,1.4,1.3,1.4,2.5s-0.4,2.5-0.8,3.2c-2,1.6-7.5,4.5-14.7,4.5
		C461.5,88.8,455.8,85,453.6,79.3z"/>
	<path class="st0" d="M495.6,87.5c0,0-0.4-0.7-0.4-2.5c0-0.5,0-1.6,0.1-2.1c1.2-0.5,2.1-0.9,2.9-2.2c1.2-2.1,1.8-6.2,1.8-16
		c0-12.5-0.1-18.1-2.8-20.5c-1.3-1.1-3.2-1.4-5.8-1.4c0,0-0.7-1.3-0.7-3c0-0.5,0-1.7,0.1-2.2c5.1,0,12.5-2.6,15.4-3.8
		c1.3,0.3,2,1.3,2,1.3c0.4,1.8,0.8,5.1,1.1,7.4c0,0,0.1,0.4,0.7,0.4c0.1,0,0.4,0,0.7-0.1c1.1-0.4,7.5-9.6,11.6-9.6
		c4.9,0,10.5,1.7,10.5,3.3c0,4.1-2,9.5-4.6,9.5c-2.4,0-5.8-1.7-9.1-1.7c-5.5,0-8.9,3.9-8.9,13.1c0,15.1,0,21.1,2.9,23.5
		c1.8,1.6,5,1.6,9.9,1.6c0.1,0.5,0.1,1.6,0.1,2.1c0,1.8-0.4,3.2-0.4,3.2c-5.4-0.4-12.1-0.7-15-0.7C504.8,86.8,499.4,87.1,495.6,87.5
		z"/>
	<path class="st0" d="M543.2,87.5c0,0-0.4-0.7-0.4-2.5c0-0.5,0-1.6,0.3-2.1c1.2-0.5,2.1-1.2,2.9-2.6c1.6-2.9,2.4-9.2,2.4-24.6
		c0-6.2-0.4-9.6-1.8-11.4c-1.3-1.6-3.4-1.8-6.6-1.8c0,0-0.7-1.3-0.7-3c0-0.5,0.3-1.7,0.4-2.2c5.9,0,15.2-2,18.9-3.5c1.3,0.3,2,2,2,2
		c-1.7,8-2.4,18-2.4,35.3c0,5.5,0.3,8.4,1.8,9.9c1.3,1.2,3.5,1.4,7.2,1.4c0,2.9-0.4,5.3-0.4,5.3s-7.6-0.7-12.9-0.7
		C548.7,86.8,543.2,87.5,543.2,87.5z M547.6,13c0-3.8,3.5-8.3,7.4-8.3c4.3,0,7.9,4.9,7.9,9.3c0,3-3.9,7.1-7.5,7.1
		C552,21.1,547.6,16.9,547.6,13z"/>
	<path class="st0" d="M576.1,62.9c0-18.8,13.8-30,29.6-30c5,0,15.5,2.6,15.5,7.2c0,2.5-1.4,10.4-2.5,10.9c-0.8,0.4-1.6,0.5-2.5,0.5
		c-0.8,0-1.4-0.1-2.2-0.3c-2-7.4-4.9-12.5-12.1-12.5c-9.2,0-13.3,8.8-13.3,18.7c0,15.2,7.1,24,18.9,24c3.7,0,6.6-0.5,10.6-1.8
		c0.8,0.1,1.2,1.2,1.2,2.2c0,1.6-0.1,3.2-0.5,3.7c-3.9,1.8-8.1,3.2-15,3.2C589.2,88.8,576.1,80.4,576.1,62.9z"/>
	<path class="st0" d="M632,87.5c0,0-0.4-0.7-0.4-2.5c0-0.5,0-1.6,0.1-2.1c1.1-0.4,2-0.8,2.8-2.5c1.3-3,2-10.2,2-29.2
		c0-26.4-0.1-35.5-2.4-38.9c-1.3-2-3.3-2-6.4-2.4c0,0-0.4-1.3-0.4-2.9c0-0.5,0-1.7,0.1-2.4c5.6-0.3,14.2-2.4,19.2-4.6
		c1.3,0.8,2,2,2,2c-2,6.2-2,15.9-2,53.3c0,0.5,0.3,1.1,0.8,1.1c5.8,0,14.3-7.9,14.3-15.1c0-1.8-2.4-2.4-2.6-2.9
		c-0.1-0.4-0.1-1.1-0.1-1.8s0.1-1.7,0.4-2.1c0,0,7,0.4,12.2,0.4c6.3,0,12.6-0.7,12.6-0.7c0.4,0.7,0.5,2,0.5,2.6
		c0,1.6-0.7,2.6-0.7,2.6c-7.6,0-11.3,2.8-23.1,14.1c-0.3,0.3-0.4,0.9-0.4,1.2c0,0.4,0.1,1.1,0.4,1.4c10,13.9,16.2,20.5,20.4,23.5
		c2.8,2,4.7,2.5,6.6,2.5c0.4,0.7,0.5,1.7,0.5,2.4c0,1.6-0.8,2.9-0.8,2.9c-3.2-0.4-8.5-0.7-11.8-0.7c-1.7,0-4.9,0-6.7,0.1
		c-2.6-6.3-8-13.7-16.8-24.2c-0.3-0.4-0.7-0.5-1.1-0.5c-1.7,0-4.6,1.8-4.6,4.3c0.3,8.1,0.5,12.2,1.8,14.1c0.9,1.3,2.5,1.6,5,1.6
		c0.1,0.5,0.1,1.6,0.1,2.1c0,1.8-0.4,3.2-0.4,3.2c-3.3-0.4-8.3-0.7-11.2-0.7S634.6,87.1,632,87.5z"/>
	<path class="st0" d="M721.9,87.5c-0.4-1.2-0.4-2.4-0.4-3.3c0-1.2,0.1-2,0.1-2c4.6,0,8.5-2.2,9.6-4.7c7.2-16.9,11.3-30.3,21.7-56.2
		c1.2-3.2,1.4-4.5,1.4-6c0-1.8-1.6-3.3-1.6-5c0-1.1,0.5-1.7,2-1.8c2.1-0.1,4.6-2.9,6.2-4.3c1.4-1.3,3-2.4,4.1-2.4
		c0.8,0,1.7,0.5,2,1.2c16,41.8,26.9,70,29.3,75.4c1.3,2.8,5.1,3.9,8.7,3.9c0,0,0.1,0.8,0.1,2c0,0.9,0,2.1-0.4,3.3
		c-7.4-0.4-15.6-0.7-18.3-0.7c-2.8,0-9.9,0.3-15.8,0.7c-0.4-1.2-0.4-2.4-0.4-3.3c0-1.2,0.1-2,0.1-2c6.3,0,10.8-0.3,10.8-3.4
		c0-1.1-1.2-6.8-7.5-22.7c-1.2-0.1-7.5-0.1-13.4-0.1c-5.1,0-9.5,0-11.6,0.1h-0.8c-6.2,17.1-6.6,19.4-6.6,21c0,2.5,2.9,5.1,8.8,5.1
		c0,0,0.1,0.8,0.1,2c0,0.9,0,2.1-0.4,3.3c-5.8-0.4-12.7-0.7-15.5-0.7C731.7,86.8,726,87.1,721.9,87.5z M771.7,50
		c-3.3-8.8-7.2-19.4-10.1-29.2c-0.1-0.3-0.9-0.4-1.1-0.4c-0.1,0-0.4,0.1-0.5,0.4c-2.9,9.6-6.6,19-10.2,29.3c1.7,0.1,6,0.1,10.5,0.1
		C764.4,50.3,769.9,50.2,771.7,50z"/>
	<path class="st0" d="M813.4,87.5c0,0-0.4-0.7-0.4-2.5c0-0.5,0-1.6,0.1-2.1c1.2-0.4,2.1-0.8,2.9-2.9c1.2-3.3,1.8-10.6,1.8-28.8
		c0-26-0.1-35.2-2.4-38.8c-1.3-2-3.3-2.2-6.4-2.5c0,0-0.4-1.3-0.4-2.9c0-0.5,0-1.7,0.1-2.4c5.6-0.3,14.6-2.4,19.8-4.6
		c1.3,0.8,2,2,2,2c-2.4,7.2-2.5,20.1-2.5,48.3c0,19.6,0.4,27.2,3.2,30.1c1.3,1.4,3.3,1.7,5.9,1.7c0.1,0.5,0.1,1.6,0.1,2.1
		c0,1.8-0.4,3.2-0.4,3.2c-4.7-0.4-10.9-0.7-13.8-0.7C820.2,86.8,815.9,87.1,813.4,87.5z"/>
	<path class="st0" d="M849,87.5c0,0-0.4-0.7-0.4-2.5c0-0.5,0-1.6,0.1-2.1c1.2-0.5,2.1-0.9,2.8-2.2c1.2-2.1,1.8-6.4,1.8-16.4
		c0-5.4-0.1-12.2-0.4-21c0,0-5.4-0.4-8.5-0.4c-0.4-0.9-0.7-1.3-0.7-2.6c0-0.7,0-1.8,0.3-2.4c0.7-0.3,8.8-2.2,8.8-2.2
		c0-3.4-0.3-8.9-0.7-12.1c0-6,16.9-23.4,23.9-23.4c3.9,0,12.1,1.2,12.1,3.7c0,4.7-0.7,8.5-3.9,8.5c-3.9,0-5.9-2-11.3-2
		c-7.4,0-9.9,4.9-9.9,11.2c0,2.6,0.1,12.7,0.3,15.1c5,0,7.9,0,15-0.4c0.9,0.4,1.1,1.6,1.1,2.8c0,1.8-0.3,3.5-0.5,4.3
		c0,0-7.9-0.1-15.4-0.1c0,25,0,33.6,3.3,36.9c1.8,1.8,4.6,2,9.1,2.1c0.1,0.5,0.1,1.6,0.1,2.1c0,1.8-0.4,3.2-0.4,3.2
		c-6-0.4-13.3-0.7-16.2-0.7C856.5,86.8,851.9,87.1,849,87.5z"/>
	<path class="st0" d="M890.9,87.5c0,0-0.4-0.7-0.4-2.5c0-0.5,0-1.6,0.1-2.1c1.2-0.5,2.1-0.9,2.9-2.2c1.2-2.1,1.8-6.2,1.8-16
		c0-12.5-0.1-18.1-2.8-20.5c-1.3-1.1-3.2-1.4-5.8-1.4c0,0-0.7-1.3-0.7-3c0-0.5,0-1.7,0.1-2.2c5.1,0,12.5-2.6,15.4-3.8
		c1.3,0.3,2,1.3,2,1.3c0.4,1.8,0.8,5.1,1.1,7.4c0,0,0.1,0.4,0.7,0.4c0.1,0,0.4,0,0.7-0.1c1.1-0.4,7.5-9.6,11.6-9.6
		c4.9,0,10.5,1.7,10.5,3.3c0,4.1-2,9.5-4.6,9.5c-2.4,0-5.8-1.7-9.1-1.7c-5.5,0-8.9,3.9-8.9,13.1c0,15.1,0,21.1,2.9,23.5
		c1.8,1.6,5,1.6,9.9,1.6c0.1,0.5,0.1,1.6,0.1,2.1c0,1.8-0.4,3.2-0.4,3.2c-5.4-0.4-12.1-0.7-15-0.7C900.1,86.8,894.7,87.1,890.9,87.5
		z"/>
	<path class="st0" d="M934.3,62.4c0-16.9,11.7-29.4,26.1-29.4c14.2,0,19.3,8.5,23.1,20.5c-3.3,5.3-27.1,7.9-36.8,10.1
		c0.7,8.7,5.6,18,21.5,18c3.9,0,7.6-0.7,11.6-1.8c1.2,0.3,1.6,2.2,1.6,3.8c0,0.8-0.1,1.4-0.3,1.8c-5.5,2.4-9.9,3.4-17.5,3.4
		C948.7,88.8,934.3,79.5,934.3,62.4z M969.2,48.2c0-5.4-4.3-9.6-9.5-9.6c-8.3,0-12.1,6.8-12.9,17.1c2.6,0.5,7.8,0.7,9.7,0.7
		C965.5,56.3,969.2,54.2,969.2,48.2z"/>
	<path class="st0" d="M993.2,63c0-16.9,11.4-30.1,26.8-30.1c4.3,0,7.6,0.7,11.3,1.8c0.4,0.1,0.7,0.1,0.9,0.1c1.2,0,2.1-0.8,2.1-1.8
		c0-12.7-0.1-18.1-1.8-20.5c-1.3-1.8-3.5-2-7.6-2c0,0-0.5-1.1-0.5-2.6c0-0.5,0-2,0.1-2.6c5.6-0.3,14.3-2.6,19.3-5.3c1.3,0.8,2,2,2,2
		c-1.4,5-1.7,10-1.7,50.3c0,16,0,22.9,2.4,25.7c1.2,1.3,2.9,1.8,5.3,2c0.3,0.9,0.4,1.7,0.4,2.6c0,0.7,0,1.8-0.1,2.4
		c-7.2,0.4-10.1,2-13.9,3c-0.9-0.1-1.4-0.4-2-1.3c0,0,0-2.4-0.7-5.9c0,0-0.3-0.4-0.9-0.4c-0.1,0-0.5,0-0.8,0.1
		c-5.8,6.6-13,8.1-17.3,8.1C1003.7,88.8,993.2,79.1,993.2,63z M1034.3,71.7c0-8.5,0-11.4-0.3-15.8c-0.7-11-6.8-17.1-15.4-17.1
		c-7.8,0-13.9,5.9-13.9,19c0,12.3,5.5,22.3,16,22.3C1025.2,80.2,1034.3,77.2,1034.3,71.7z"/>
</g>
</svg>
