<?xml version="1.0" encoding="utf-8"?>
<!-- Generator: Adobe Illustrator 20.1.0, SVG Export Plug-In . SVG Version: 6.00 Build 0)  -->
<svg version="1.1" id="Layer_1" xmlns="http://www.w3.org/2000/svg" xmlns:xlink="http://www.w3.org/1999/xlink" x="0px" y="0px"
	 viewBox="0 0 1309 69" style="enable-background:new 0 0 1309 69;" xml:space="preserve">
<style type="text/css">
	.st0{fill:#F5F5F5;}
</style>
<g>
	<path class="st0" d="M157.6,0v68.4H226V0H157.6z M187.2,33.8l-23.6,23.6V10.3L187.2,33.8z M167.9,6H215l-23.6,23.6L167.9,6z
		 M191.4,38.1l24.4,24.4h-48.7L191.4,38.1z M195.7,33.8l24.4-24.4v48.7L195.7,33.8z"/>
	<path class="st0" d="M79.7,0.6V69h68.4V0.6H79.7z M137.9,6.6L85.7,58.8V6.6H137.9z M89.9,63l52.2-52.2V63H89.9z"/>
	<path class="st0" d="M0,0.6V69h68.4V0.6H0z M29.6,34.4L6,58V10.9L29.6,34.4z M10.2,6.6h47.1L33.8,30.2L10.2,6.6z M33.8,38.7
		L58.2,63H9.4L33.8,38.7z M38,34.4L62.4,10v48.7L38,34.4z"/>
	<path class="st0" d="M308.6,42.2c-3.1,0-5.1-0.3-7.6-1c0,12.4,0,17.7,2.6,19.9c1.7,1.4,4.5,1.6,9,1.6c0.1,0.6,0.2,1.2,0.2,1.7
		c0,1.4-0.4,2.3-0.4,2.3c-6.9-0.3-14.1-0.5-16.2-0.5c-2,0-8.2,0.2-13.7,0.5c0,0-0.4-1-0.4-2.3c0-0.5,0.1-1.1,0.2-1.7
		c3.5,0,5.6-0.1,7-1.6c2.2-2.5,2.3-8.9,2.3-26c0-15.7-0.1-22.3-1.9-25.1c-1.3-2-3.6-2.1-7.4-2.1c0,0-0.2-0.7-0.2-1.7
		c0-0.7,0.1-1.5,0.4-2.3c5.6,0.3,11.8,0.5,13.8,0.5c4.3,0,8.7-0.5,13.7-0.5c14.6,0,22.8,8.7,22.8,18
		C332.9,35.7,320.7,42.2,308.6,42.2z M308,38.3c9.8,0,14.3-5.3,14.3-16.4c0-8.6-4.7-13.9-14.8-13.9c-2.3,0-3.8,0-4.7,1.6
		c-1.6,2.6-1.7,9.5-1.8,27.8C302.9,38,305.7,38.3,308,38.3z"/>
	<path class="st0" d="M338.8,57.8c0-7.9,6.4-11.8,23.6-14.5v-2c0-7-3.6-9.4-8.7-9.4c-3.6,0-7.6,1.2-11,2.8c-1.1,0-1.3-1.4-1.3-2.8
		c0-0.8,0.1-1.2,0.2-1.5c2.8-2.6,7.4-5,14.8-5c9.6,0,13.4,6.4,14.1,10.2c-0.7,7.2-0.9,10.4-0.9,16c0,8.2,0.8,8.8,6.1,9.9
		c0.3,0.6,0.4,1.2,0.4,1.8c0,0.5-0.1,1-0.2,1.6c-2,1.1-4.4,2.4-6.6,2.4c-2.7,0-5.1-1.5-6.5-5.2c-0.1-0.1-0.4-0.3-0.7-0.3
		c-0.1,0-0.6,0-0.7,0.1c-3.7,4-6.7,5.7-11.7,5.7C343.3,67.6,338.8,63.3,338.8,57.8z M362.3,48.8c-2-0.4-4-0.5-5.5-0.5
		c-6.8,0-9.5,2-9.5,6.6c0,4.1,2.6,6.8,5.6,6.8c3.1,0,6.2-1.9,9.1-3.8C362.2,55.6,362.3,51.5,362.3,48.8z"/>
	<path class="st0" d="M386.3,60.5c0.6-2.9,0.8-6.4,1-10.7c0.2-4.2,0.2-9.2,0.2-16.6c-3.6-0.1-6.8-0.4-7-0.7c0,0-0.2-0.7-0.2-1.9
		c0-0.5,0-0.7,0.1-1c0.1-0.4,5.3-2.8,6.6-4.1c1.5-1.5,3.8-5.7,5.7-10.3c0.5-0.2,1.3-0.3,2-0.3c1.1,0,1.3,0.4,1.5,1.4
		c-0.2,2.9-0.4,8.2-0.5,11.7c6.3,0,10.3-0.3,12.1-0.5c0.3,0.3,0.4,0.8,0.4,1.4c0,1.5-0.5,3.7-1.6,4.4c-3.3-0.1-8.3-0.1-11.1-0.1
		c0,0-0.2,10.1-0.2,21.4c0,5.1,2.7,7,6.1,7c2.6,0,5.1-0.5,7.6-1.5c0.8,0.2,1.1,1,1.1,1.9s-0.3,1.9-0.6,2.4
		c-1.5,1.2-5.7,3.4-11.1,3.4C392.2,67.6,388,64.7,386.3,60.5z"/>
	<path class="st0" d="M418.1,66.6c0,0-0.3-0.5-0.3-1.9c0-0.4,0-1.2,0.1-1.6c0.9-0.4,1.6-0.7,2.2-1.7c0.9-1.6,1.4-4.7,1.4-12.1
		c0-9.4-0.1-13.7-2.1-15.5c-1-0.8-2.4-1.1-4.4-1.1c0,0-0.5-1-0.5-2.3c0-0.4,0-1.3,0.1-1.7c3.9,0,9.4-2,11.6-2.9c1,0.2,1.5,1,1.5,1
		c0.3,1.4,0.6,3.9,0.8,5.6c0,0,0.1,0.3,0.5,0.3c0.1,0,0.3,0,0.5-0.1c0.8-0.3,5.7-7.3,8.8-7.3c3.7,0,8,1.3,8,2.5
		c0,3.1-1.5,7.2-3.5,7.2c-1.8,0-4.4-1.3-6.9-1.3c-4.2,0-6.8,3-6.8,9.9c0,11.4,0,16,2.2,17.8c1.4,1.2,3.8,1.2,7.5,1.2
		c0.1,0.4,0.1,1.2,0.1,1.6c0,1.4-0.3,2.4-0.3,2.4c-4.1-0.3-9.1-0.5-11.3-0.5C425.1,66.1,421,66.3,418.1,66.6z"/>
	<path class="st0" d="M454.1,66.6c0,0-0.3-0.5-0.3-1.9c0-0.4,0-1.2,0.2-1.6c0.9-0.4,1.6-0.9,2.2-2c1.2-2.2,1.8-7,1.8-18.6
		c0-4.7-0.3-7.3-1.4-8.7c-1-1.2-2.6-1.4-5-1.4c0,0-0.5-1-0.5-2.3c0-0.4,0.2-1.3,0.3-1.7c4.5,0,11.5-1.5,14.3-2.7
		c1,0.2,1.5,1.5,1.5,1.5c-1.3,6.1-1.8,13.6-1.8,26.8c0,4.2,0.2,6.4,1.4,7.5c1,0.9,2.7,1.1,5.5,1.1c0,2.2-0.3,4-0.3,4
		s-5.8-0.5-9.7-0.5C458.3,66.1,454.1,66.6,454.1,66.6z M457.5,10.2c0-2.9,2.7-6.3,5.6-6.3c3.3,0,6,3.7,6,7.1c0,2.3-3,5.4-5.7,5.4
		C460.7,16.4,457.5,13.2,457.5,10.2z"/>
	<path class="st0" d="M479,48c0-14.2,10.4-22.7,22.4-22.7c3.8,0,11.7,2,11.7,5.5c0,1.9-1.1,7.9-1.9,8.3c-0.6,0.3-1.2,0.4-1.9,0.4
		c-0.6,0-1.1-0.1-1.7-0.2c-1.5-5.6-3.7-9.4-9.1-9.4c-7,0-10,6.7-10,14.1c0,11.5,5.4,18.2,14.3,18.2c2.8,0,5-0.4,8.1-1.4
		c0.6,0.1,0.9,0.9,0.9,1.7c0,1.2-0.1,2.4-0.4,2.8c-3,1.4-6.2,2.4-11.3,2.4C488.9,67.6,479,61.3,479,48z"/>
	<path class="st0" d="M521.3,66.6c0,0-0.3-0.5-0.3-1.9c0-0.4,0-1.2,0.1-1.6c0.8-0.3,1.5-0.6,2.1-1.9c1-2.3,1.5-7.8,1.5-22.1
		c0-20-0.1-26.9-1.8-29.4c-1-1.5-2.5-1.5-4.9-1.8c0,0-0.3-1-0.3-2.2c0-0.4,0-1.3,0.1-1.8c4.3-0.2,10.7-1.8,14.5-3.5
		c1,0.6,1.5,1.5,1.5,1.5c-1.5,4.7-1.5,12-1.5,40.4c0,0.4,0.2,0.8,0.6,0.8c4.4,0,10.8-6,10.8-11.4c0-1.4-1.8-1.8-2-2.2
		c-0.1-0.3-0.1-0.8-0.1-1.4c0-0.5,0.1-1.3,0.3-1.6c0,0,5.3,0.3,9.2,0.3c4.8,0,9.5-0.5,9.5-0.5c0.3,0.5,0.4,1.5,0.4,2
		c0,1.2-0.5,2-0.5,2c-5.8,0-8.6,2.1-17.5,10.6c-0.2,0.2-0.3,0.7-0.3,0.9c0,0.3,0.1,0.8,0.3,1.1c7.6,10.5,12.2,15.5,15.4,17.8
		c2.1,1.5,3.6,1.9,5,1.9c0.3,0.5,0.4,1.3,0.4,1.8c0,1.2-0.6,2.2-0.6,2.2c-2.4-0.3-6.5-0.5-9-0.5c-1.3,0-3.7,0-5.1,0.1
		c-2-4.8-6.1-10.3-12.7-18.3c-0.2-0.3-0.5-0.4-0.8-0.4c-1.3,0-3.5,1.4-3.5,3.3c0.2,6.2,0.4,9.2,1.4,10.6c0.7,1,1.9,1.2,3.8,1.2
		c0.1,0.4,0.1,1.2,0.1,1.6c0,1.4-0.3,2.4-0.3,2.4c-2.5-0.3-6.3-0.5-8.5-0.5S523.3,66.3,521.3,66.6z"/>
	<path class="st0" d="M589.4,66.6c-0.3-0.9-0.3-1.8-0.3-2.5c0-0.9,0.1-1.5,0.1-1.5c3.5,0,6.5-1.7,7.3-3.6c5.5-12.8,8.6-23,16.4-42.6
		c0.9-2.4,1.1-3.4,1.1-4.6c0-1.4-1.2-2.5-1.2-3.8c0-0.8,0.4-1.3,1.5-1.4c1.6-0.1,3.5-2.2,4.7-3.3c1.1-1,2.3-1.8,3.1-1.8
		c0.6,0,1.3,0.4,1.5,0.9c12.1,31.6,20.4,53,22.2,57.1c1,2.1,3.9,3,6.6,3c0,0,0.1,0.6,0.1,1.5c0,0.7,0,1.6-0.3,2.5
		c-5.6-0.3-11.8-0.5-13.8-0.5c-2.1,0-7.5,0.2-11.9,0.5c-0.3-0.9-0.3-1.8-0.3-2.5c0-0.9,0.1-1.5,0.1-1.5c4.8,0,8.2-0.2,8.2-2.6
		c0-0.8-0.9-5.2-5.7-17.2c-0.9-0.1-5.7-0.1-10.1-0.1c-3.9,0-7.2,0-8.8,0.1h-0.6c-4.7,12.9-5,14.7-5,15.9c0,1.9,2.2,3.9,6.7,3.9
		c0,0,0.1,0.6,0.1,1.5c0,0.7,0,1.6-0.3,2.5c-4.4-0.3-9.6-0.5-11.7-0.5C596.8,66.1,592.5,66.3,589.4,66.6z M627.1,38.3
		c-2.5-6.7-5.5-14.7-7.7-22.1c-0.1-0.2-0.7-0.3-0.8-0.3s-0.3,0.1-0.4,0.3c-2.2,7.3-5,14.4-7.8,22.2c1.3,0.1,4.6,0.1,8,0.1
		C621.5,38.5,625.7,38.4,627.1,38.3z"/>
	<path class="st0" d="M658.6,66.6c0,0-0.3-0.5-0.3-1.9c0-0.4,0-1.2,0.1-1.6c0.9-0.3,1.6-0.6,2.2-2.2c0.9-2.5,1.4-8.1,1.4-21.8
		c0-19.7-0.1-26.7-1.8-29.3c-1-1.5-2.5-1.7-4.9-1.9c0,0-0.3-1-0.3-2.2c0-0.4,0-1.3,0.1-1.8c4.3-0.2,11-1.8,15-3.5
		c1,0.6,1.5,1.5,1.5,1.5c-1.8,5.5-1.9,15.2-1.9,36.6c0,14.8,0.3,20.6,2.4,22.8c1,1.1,2.5,1.3,4.5,1.3c0.1,0.4,0.1,1.2,0.1,1.6
		c0,1.4-0.3,2.4-0.3,2.4c-3.6-0.3-8.3-0.5-10.4-0.5C663.8,66.1,660.5,66.3,658.6,66.6z"/>
	<path class="st0" d="M685.6,66.6c0,0-0.3-0.5-0.3-1.9c0-0.4,0-1.2,0.1-1.6c0.9-0.4,1.6-0.7,2.1-1.7c0.9-1.6,1.4-4.9,1.4-12.4
		c0-4.1-0.1-9.2-0.3-15.9c0,0-4.1-0.3-6.5-0.3c-0.3-0.7-0.5-1-0.5-2c0-0.5,0-1.4,0.2-1.8c0.5-0.2,6.7-1.7,6.7-1.7
		c0-2.6-0.2-6.8-0.5-9.1c0-4.6,12.8-17.7,18.1-17.7c3,0,9.1,0.9,9.1,2.8c0,3.6-0.5,6.5-3,6.5c-3,0-4.5-1.5-8.6-1.5
		c-5.6,0-7.5,3.7-7.5,8.5c0,2,0.1,9.6,0.2,11.4c3.8,0,6,0,11.3-0.3c0.7,0.3,0.8,1.2,0.8,2.1c0,1.4-0.2,2.7-0.4,3.3
		c0,0-6-0.1-11.6-0.1c0,18.9,0,25.5,2.5,27.9c1.4,1.4,3.5,1.5,6.9,1.6c0.1,0.4,0.1,1.2,0.1,1.6c0,1.4-0.3,2.4-0.3,2.4
		c-4.6-0.3-10-0.5-12.2-0.5C691.2,66.1,687.8,66.3,685.6,66.6z"/>
	<path class="st0" d="M717.3,66.6c0,0-0.3-0.5-0.3-1.9c0-0.4,0-1.2,0.1-1.6c0.9-0.4,1.6-0.7,2.2-1.7c0.9-1.6,1.4-4.7,1.4-12.1
		c0-9.4-0.1-13.7-2.1-15.5c-1-0.8-2.4-1.1-4.4-1.1c0,0-0.5-1-0.5-2.3c0-0.4,0-1.3,0.1-1.7c3.9,0,9.4-2,11.6-2.9c1,0.2,1.5,1,1.5,1
		c0.3,1.4,0.6,3.9,0.8,5.6c0,0,0.1,0.3,0.5,0.3c0.1,0,0.3,0,0.5-0.1c0.8-0.3,5.7-7.3,8.8-7.3c3.7,0,8,1.3,8,2.5
		c0,3.1-1.5,7.2-3.5,7.2c-1.8,0-4.4-1.3-6.9-1.3c-4.2,0-6.8,3-6.8,9.9c0,11.4,0,16,2.2,17.8c1.4,1.2,3.8,1.2,7.5,1.2
		c0.1,0.4,0.1,1.2,0.1,1.6c0,1.4-0.3,2.4-0.3,2.4c-4.1-0.3-9.1-0.5-11.3-0.5C724.3,66.1,720.2,66.3,717.3,66.6z"/>
	<path class="st0" d="M750.2,47.6c0-12.8,8.9-22.3,19.8-22.3c10.7,0,14.6,6.5,17.5,15.5c-2.5,4-20.5,6-27.8,7.7
		c0.5,6.6,4.3,13.6,16.3,13.6c3,0,5.8-0.5,8.8-1.4c0.9,0.2,1.2,1.7,1.2,2.9c0,0.6-0.1,1.1-0.2,1.4c-4.2,1.8-7.5,2.6-13.2,2.6
		C761.1,67.6,750.2,60.6,750.2,47.6z M776.6,36.9c0-4.1-3.3-7.3-7.2-7.3c-6.3,0-9.1,5.2-9.7,12.9c2,0.4,5.9,0.5,7.4,0.5
		C773.8,43.1,776.6,41.5,776.6,36.9z"/>
	<path class="st0" d="M794.8,48.1c0-12.8,8.7-22.8,20.3-22.8c3.3,0,5.8,0.5,8.6,1.4c0.3,0.1,0.5,0.1,0.7,0.1c0.9,0,1.6-0.6,1.6-1.4
		c0-9.6-0.1-13.7-1.4-15.5c-1-1.4-2.7-1.5-5.8-1.5c0,0-0.4-0.8-0.4-2c0-0.4,0-1.5,0.1-2c4.3-0.2,10.8-2,14.6-4
		c1,0.6,1.5,1.5,1.5,1.5c-1.1,3.8-1.3,7.6-1.3,38.1c0,12.1,0,17.3,1.8,19.5c0.9,1,2.2,1.4,4,1.5c0.2,0.7,0.3,1.3,0.3,2
		c0,0.5,0,1.4-0.1,1.8c-5.5,0.3-7.7,1.5-10.5,2.3c-0.7-0.1-1.1-0.3-1.5-1c0,0,0-1.8-0.5-4.5c0,0-0.2-0.3-0.7-0.3
		c-0.1,0-0.4,0-0.6,0.1c-4.4,5-9.8,6.2-13.1,6.2C802.7,67.6,794.8,60.3,794.8,48.1z M825.9,54.7c0-6.5,0-8.7-0.2-11.9
		c-0.5-8.4-5.2-12.9-11.6-12.9c-5.9,0-10.5,4.5-10.5,14.4c0,9.3,4.2,16.9,12.1,16.9C819,61.2,825.9,58.9,825.9,54.7z"/>
	<path class="st0" d="M867,66.1c0,0-0.4-0.9-0.4-2.3c0-0.5,0.1-1.1,0.2-1.7c3.4,0,5.6,0,7-1.5c2.3-2.5,2.3-8.9,2.3-25.9
		c0-17.4-0.1-23.8-2.5-26.1c-1.4-1.3-3.5-1.3-6.8-1.3c0,0-0.2-0.7-0.2-1.7c0-0.7,0.1-1.5,0.4-2.3c6.7,0.3,13.7,0.5,15.8,0.5
		c8.6,0,23.2-0.2,32.8-0.5c0,8.9-0.2,15.5-0.2,15.5s-1.2,0.6-3,0.6c-0.4,0-0.9,0-1.6-0.2c-1.3-7.4-3.8-10-8.1-10.9
		c-2.2-0.4-4.8-0.5-12-0.5C889,7.8,887.8,8,887,9c-1.5,2-1.6,7.7-1.6,23.1c1.9,0.2,5.5,0.2,7.5,0.2c5.4,0,9.4-1,9.7-8
		c0.5-0.1,1.7-0.2,2.2-0.2c1.4,0,2.5,0.5,2.5,0.5s-0.4,4.2-0.4,9.3c0,5.6,0.4,10.2,0.4,10.2s-1.1,0.5-2.5,0.5
		c-0.5,0-1.6-0.1-2.2-0.2c-0.1-6-2.6-8.1-9.2-8.1c-2.2,0-6.1,0.1-8,0.2c0,16.2,0,21.9,1.6,23.9c0.8,1,2,1,3.7,1
		c7.8,0,10.1,0,12.4-0.5c4.4-0.9,8.1-4.5,9.4-12.2c0.7-0.1,1.2-0.1,1.6-0.1c1.8,0,3.2,0.6,3.2,0.6s-1.7,7.9-1.7,16.8
		c-10.1-0.3-25-0.6-33.1-0.6C878.9,65.6,867.3,66.1,867,66.1z"/>
	<path class="st0" d="M926.2,47.6c0-12.8,8.7-22.8,20.3-22.8c3.3,0,5.8,0.5,8.6,1.4c0.3,0.1,0.5,0.1,0.7,0.1c0.9,0,1.6-0.6,1.6-1.4
		c0-9.6-0.1-13.7-1.4-15.5c-1-1.4-2.7-1.5-5.8-1.5c0,0-0.4-0.8-0.4-2c0-0.4,0-1.5,0.1-2c4.3-0.2,10.8-2,14.6-4
		c1,0.6,1.5,1.5,1.5,1.5c-1.1,3.8-1.3,7.6-1.3,38.1c0,12.1,0,17.3,1.8,19.5c0.9,1,2.2,1.4,4,1.5c0.2,0.7,0.3,1.3,0.3,2
		c0,0.5,0,1.4-0.1,1.8c-5.5,0.3-7.7,1.5-10.5,2.3c-0.7-0.1-1.1-0.3-1.5-1c0,0,0-1.8-0.5-4.5c0,0-0.2-0.3-0.7-0.3
		c-0.1,0-0.4,0-0.6,0.1c-4.4,5-9.8,6.2-13.1,6.2C934.1,67.1,926.2,59.8,926.2,47.6z M957.3,54.2c0-6.5,0-8.7-0.2-11.9
		c-0.5-8.4-5.2-12.9-11.6-12.9c-5.9,0-10.5,4.5-10.5,14.4c0,9.3,4.2,16.9,12.1,16.9C950.5,60.7,957.3,58.4,957.3,54.2z"/>
	<path class="st0" d="M977.4,47.1c0-12.8,8.9-22.3,19.8-22.3c10.7,0,14.6,6.5,17.5,15.5c-2.5,4-20.5,6-27.8,7.7
		c0.5,6.6,4.3,13.6,16.3,13.6c3,0,5.8-0.5,8.8-1.4c0.9,0.2,1.2,1.7,1.2,2.9c0,0.6-0.1,1.1-0.2,1.4c-4.2,1.8-7.5,2.6-13.2,2.6
		C988.2,67.1,977.4,60.1,977.4,47.1z M1003.8,36.4c0-4.1-3.3-7.3-7.2-7.3c-6.3,0-9.1,5.2-9.7,12.9c2,0.4,5.9,0.5,7.4,0.5
		C1001,42.6,1003.8,41,1003.8,36.4z"/>
	<path class="st0" d="M1023.3,66.1c0,0-0.3-0.5-0.3-1.9c0-0.4,0-1.2,0.1-1.6c0.9-0.3,1.6-0.6,2.2-2.2c0.9-2.5,1.4-8.1,1.4-21.8
		c0-19.7-0.1-26.7-1.8-29.3c-1-1.5-2.5-1.7-4.9-1.9c0,0-0.3-1-0.3-2.2c0-0.4,0-1.3,0.1-1.8c4.3-0.2,11-1.8,15-3.5
		c1,0.6,1.5,1.5,1.5,1.5c-1.8,5.5-1.9,15.2-1.9,36.6c0,14.8,0.3,20.6,2.4,22.8c1,1.1,2.5,1.3,4.5,1.3c0.1,0.4,0.1,1.2,0.1,1.6
		c0,1.4-0.3,2.4-0.3,2.4c-3.6-0.3-8.3-0.5-10.4-0.5C1028.5,65.6,1025.2,65.8,1023.3,66.1z"/>
	<path class="st0" d="M1052.3,64c-1.1-0.5-1.5-1.5-1.5-1.5c0.4-4.2,0.8-9.8,0.8-29c0-16.4-0.1-22.2-1.7-24.5c-0.8-1.2-2.1-1.4-4-1.7
		c0,0-0.3-0.8-0.3-2c0-0.4,0-1.3,0.1-1.8c4.6-0.3,10.2-1.9,13.6-3.6c1,0.6,1.5,1.5,1.5,1.5c-1.4,5.7-1.8,10.8-1.8,28.7
		c0,0.2,0.3,0.4,0.7,0.4c0.2,0,0.4,0,0.6-0.1c2.6-1.9,6.1-5.7,11.6-5.7c9.2,0,18,6.7,18,18.9c0,14.6-10.6,23.4-22.1,23.4
		C1061.7,67.1,1056.9,65.5,1052.3,64z M1081,47.7c0-9.9-3.1-16.4-12.2-16.4c-4.4,0-9.4,2.2-9.4,6c0,6.7,0,13.2,0.2,16.4
		c0.3,5.8,4.4,9,9.8,9C1075.4,62.7,1081,58.3,1081,47.7z"/>
	<path class="st0" d="M1097.3,57.3c0-7.9,6.4-11.8,23.6-14.5v-2c0-7-3.6-9.4-8.7-9.4c-3.6,0-7.6,1.2-11,2.8c-1.1,0-1.3-1.4-1.3-2.8
		c0-0.8,0.1-1.2,0.2-1.5c2.8-2.6,7.4-5,14.8-5c9.6,0,13.4,6.4,14.1,10.2c-0.7,7.2-0.9,10.4-0.9,16c0,8.2,0.8,8.8,6.1,9.9
		c0.3,0.6,0.4,1.2,0.4,1.8c0,0.5-0.1,1-0.2,1.6c-2,1.1-4.4,2.4-6.6,2.4c-2.7,0-5.1-1.5-6.5-5.2c-0.1-0.1-0.4-0.3-0.7-0.3
		c-0.1,0-0.6,0-0.7,0.1c-3.7,4-6.7,5.7-11.7,5.7C1101.8,67.1,1097.3,62.9,1097.3,57.3z M1120.8,48.3c-2-0.4-4-0.5-5.5-0.5
		c-6.8,0-9.5,2-9.5,6.6c0,4.1,2.6,6.8,5.6,6.8c3.1,0,6.2-1.9,9.1-3.8C1120.7,55.1,1120.8,51,1120.8,48.3z"/>
	<path class="st0" d="M1140.4,47.5c0-14.2,10.4-22.7,22.4-22.7c3.8,0,11.7,2,11.7,5.5c0,1.9-1.1,7.9-1.9,8.3
		c-0.6,0.3-1.2,0.4-1.9,0.4c-0.6,0-1.1-0.1-1.7-0.2c-1.5-5.6-3.7-9.4-9.1-9.4c-7,0-10,6.7-10,14.1c0,11.5,5.4,18.2,14.3,18.2
		c2.8,0,5-0.4,8.1-1.4c0.6,0.1,0.9,0.9,0.9,1.7c0,1.2-0.1,2.4-0.4,2.8c-3,1.4-6.2,2.4-11.3,2.4C1150.2,67.1,1140.4,60.8,1140.4,47.5
		z"/>
	<path class="st0" d="M1182.6,66.1c0,0-0.3-0.5-0.3-1.9c0-0.4,0-1.2,0.1-1.6c0.8-0.3,1.5-0.6,2.1-1.9c1-2.3,1.5-7.8,1.5-22.1
		c0-20.3-0.1-27-1.9-29.5c-1-1.3-2.5-1.5-4.8-1.7c0,0-0.3-1-0.3-2.2c0-0.4,0-1.3,0.1-1.8c4.3-0.2,10.7-1.8,14.5-3.5
		c1,0.6,1.5,1.5,1.5,1.5c-1.8,5.5-1.9,11.6-1.9,29.5c0.1,0.1,0.4,0.3,0.7,0.3c0.1,0,0.7,0,0.8-0.1c2.4-2,6.4-6.4,13.2-6.4
		c9.6,0,13,6.4,13.7,10.2c-0.5,4.5-0.9,12.6-0.9,18.1c0,4.3,0.5,6.7,2.3,7.9c1.1,0.7,2.6,1.1,4.6,1.1c0.1,0.4,0.1,1.2,0.1,1.6
		c0,1.4-0.3,2.4-0.3,2.4c-2.7-0.3-6.7-0.5-8.9-0.5c-2.2,0-6,0.2-8.5,0.5c0,0-0.3-0.5-0.3-1.9c0-0.4,0-1.2,0.1-1.6
		c2.3-0.6,2.4-1.6,3-10.7c0.2-3.1,0.2-3.8,0.2-10.6c0-6.4-4.2-9.4-9.8-9.4c-4.7,0-9.5,2.2-9.5,6.3c0,14.8,0.1,20.6,2.1,22.8
		c1,1.1,2.4,1.3,4.5,1.3c0.1,0.4,0.1,1.2,0.1,1.6c0,1.4-0.3,2.4-0.3,2.4c-3-0.3-7.2-0.5-9.3-0.5
		C1188.6,65.6,1184.9,65.8,1182.6,66.1z"/>
	<path class="st0" d="M1233.9,47.1c0-12.8,8.9-22.3,19.8-22.3c10.7,0,14.6,6.5,17.5,15.5c-2.5,4-20.5,6-27.8,7.7
		c0.5,6.6,4.3,13.6,16.3,13.6c3,0,5.8-0.5,8.8-1.4c0.9,0.2,1.2,1.7,1.2,2.9c0,0.6-0.1,1.1-0.2,1.4c-4.2,1.8-7.5,2.6-13.2,2.6
		C1244.7,67.1,1233.9,60.1,1233.9,47.1z M1260.2,36.4c0-4.1-3.3-7.3-7.2-7.3c-6.3,0-9.1,5.2-9.7,12.9c2,0.4,5.9,0.5,7.4,0.5
		C1257.4,42.6,1260.2,41,1260.2,36.4z"/>
	<path class="st0" d="M1280.9,66.1c0,0-0.3-0.5-0.3-1.9c0-0.4,0-1.2,0.1-1.6c0.9-0.4,1.6-0.7,2.2-1.7c0.9-1.6,1.4-4.7,1.4-12.1
		c0-9.4-0.1-13.7-2.1-15.5c-1-0.8-2.4-1.1-4.4-1.1c0,0-0.5-1-0.5-2.3c0-0.4,0-1.3,0.1-1.7c3.9,0,9.4-2,11.6-2.9c1,0.2,1.5,1,1.5,1
		c0.3,1.4,0.6,3.9,0.8,5.6c0,0,0.1,0.3,0.5,0.3c0.1,0,0.3,0,0.5-0.1c0.8-0.3,5.7-7.3,8.8-7.3c3.7,0,8,1.3,8,2.5
		c0,3.1-1.5,7.2-3.5,7.2c-1.8,0-4.4-1.3-6.9-1.3c-4.2,0-6.8,3-6.8,9.9c0,11.4,0,16,2.2,17.8c1.4,1.2,3.8,1.2,7.5,1.2
		c0.1,0.4,0.1,1.2,0.1,1.6c0,1.4-0.3,2.4-0.3,2.4c-4.1-0.3-9.1-0.5-11.3-0.5C1287.8,65.6,1283.8,65.8,1280.9,66.1z"/>
</g>
</svg>
