<?xml version="1.0" encoding="utf-8"?>
<!-- Generator: Adobe Illustrator 20.1.0, SVG Export Plug-In . SVG Version: 6.00 Build 0)  -->
<svg version="1.1" id="Layer_1" xmlns="http://www.w3.org/2000/svg" xmlns:xlink="http://www.w3.org/1999/xlink" x="0px" y="0px"
	 viewBox="0 0 46 46" style="enable-background:new 0 0 46 46;" xml:space="preserve">
<style type="text/css">
	.st0{enable-background:new    ;}
	.st1{fill:#2871B8;}
</style>
<g class="st0">
	<path class="st1" d="M38.6,7.6c2,2,3.6,4.3,4.7,7c1.1,2.7,1.7,5.6,1.7,8.6c0,3-0.6,5.8-1.7,8.5c-1.1,2.6-2.7,5-4.7,7
		c-2,2-4.3,3.6-7,4.7C28.9,44.4,26,45,23.1,45c-3,0-5.8-0.6-8.5-1.7c-2.6-1.1-5-2.7-7-4.7c-2-2-3.6-4.4-4.7-7
		c-1.1-2.7-1.7-5.5-1.7-8.5c0-3,0.6-5.8,1.7-8.6c1.1-2.6,2.7-5,4.7-7c2-2,4.3-3.6,7-4.7c2.7-1.1,5.6-1.7,8.6-1.7
		c3,0,5.8,0.6,8.5,1.7C34.2,4,36.5,5.5,38.6,7.6L38.6,7.6z M42.2,23.1c0-2.6-0.5-5.1-1.5-7.4c-1-2.3-2.3-4.3-4.1-6.1
		c-1.8-1.8-3.8-3.1-6.1-4.1c-2.4-1-4.8-1.5-7.4-1.5S18,4.5,15.6,5.5c-2.3,1-4.3,2.3-6.1,4.1c-1.8,1.8-3.1,3.8-4.1,6.1
		c-1,2.4-1.5,4.8-1.5,7.4c0,2.6,0.5,5.1,1.5,7.4c1,2.3,2.3,4.3,4.1,6.1c1.8,1.8,3.8,3.1,6.1,4.1c2.4,1,4.8,1.5,7.4,1.5
		s5.1-0.5,7.5-1.5c2.3-1,4.3-2.3,6.1-4.1c1.8-1.8,3.1-3.8,4.1-6.1C41.7,28.2,42.2,25.7,42.2,23.1z M20.9,11.4l10.1,11.6L20.9,34.7
		l-2.1-1.8l8.5-9.8l-8.5-9.8L20.9,11.4z"/>
</g>
</svg>
