<?xml version="1.0" encoding="utf-8"?>
<!-- Generator: Adobe Illustrator 20.1.0, SVG Export Plug-In . SVG Version: 6.00 Build 0)  -->
<svg version="1.1" id="Layer_1" xmlns="http://www.w3.org/2000/svg" xmlns:xlink="http://www.w3.org/1999/xlink" x="0px" y="0px"
	 viewBox="0 0 46 46" style="enable-background:new 0 0 46 46;" xml:space="preserve">
<style type="text/css">
	.st0{enable-background:new    ;}
	.st1{fill:#2670B8;}
</style>
<g class="st0">
	<path class="st1" d="M43.2,14.5c1.1,2.7,1.7,5.6,1.7,8.5c0,3-0.6,5.8-1.7,8.5c-1.1,2.6-2.7,5-4.7,7c-2,2-4.3,3.6-7,4.7
		C28.8,44.4,26,45,23,45c-3,0-5.8-0.6-8.5-1.7c-2.6-1.1-5-2.7-7-4.7c-2-2-3.6-4.3-4.7-7C1.7,28.8,1.1,26,1.1,23c0-3,0.6-5.8,1.7-8.5
		c1.1-2.6,2.7-5,4.7-7c2-2,4.3-3.6,7-4.7c2.7-1.1,5.6-1.7,8.5-1.7c3,0,5.8,0.6,8.5,1.7c2.6,1.1,5,2.7,7,4.7
		C40.5,9.5,42.1,11.9,43.2,14.5z M42.1,23c0-2.6-0.5-5.1-1.5-7.5c-1-2.3-2.3-4.3-4.1-6.1c-1.8-1.8-3.8-3.1-6.1-4.1
		c-2.4-1-4.8-1.5-7.4-1.5c-2.6,0-5.1,0.5-7.5,1.5c-2.3,1-4.3,2.3-6.1,4.1c-1.8,1.8-3.1,3.8-4.1,6.1c-1,2.4-1.5,4.8-1.5,7.4
		s0.5,5.1,1.5,7.4c1,2.3,2.3,4.3,4.1,6.1c1.8,1.8,3.8,3.1,6.1,4.1c2.4,1,4.8,1.5,7.4,1.5c2.6,0,5.1-0.5,7.5-1.5
		c2.3-1,4.3-2.3,6.1-4.1c1.8-1.8,3.1-3.8,4.1-6.1C41.6,28.1,42.1,25.6,42.1,23z M16.4,32.2h2.8V13.9h-2.8V32.2z M26.9,32.2h2.8V13.9
		h-2.8V32.2z"/>
</g>
</svg>
