<?xml version="1.0" encoding="utf-8"?>
<!-- Generator: Adobe Illustrator 20.1.0, SVG Export Plug-In . SVG Version: 6.00 Build 0)  -->
<svg version="1.1" id="Layer_1" xmlns="http://www.w3.org/2000/svg" xmlns:xlink="http://www.w3.org/1999/xlink" x="0px" y="0px"
	 viewBox="0 0 46 46" style="enable-background:new 0 0 46 46;" xml:space="preserve">
<style type="text/css">
	.st0{enable-background:new    ;}
	.st1{fill:#0070C9;}
</style>
<g class="st0">
	<path class="st1" d="M2.8,31.5C1.7,28.8,1.1,26,1.1,23s0.6-5.8,1.7-8.5c1.1-2.6,2.7-4.9,4.7-6.9c2-2,4.3-3.6,6.9-4.7
		c2.7-1.1,5.5-1.7,8.5-1.7c2.9,0,5.8,0.6,8.5,1.7C34,4,36.3,5.6,38.3,7.6c2,2,3.6,4.3,4.7,6.9c1.1,2.7,1.7,5.5,1.7,8.5
		s-0.6,5.8-1.7,8.5c-1.1,2.6-2.7,4.9-4.7,6.9c-2,2-4.3,3.6-6.9,4.7c-2.7,1.1-5.5,1.7-8.5,1.7c-2.9,0-5.8-0.6-8.5-1.7
		c-2.6-1.1-4.9-2.7-6.9-4.7C5.5,36.4,3.9,34.1,2.8,31.5z M3.9,23c0,2.6,0.5,5,1.5,7.4c1,2.3,2.3,4.3,4.1,6.1c1.8,1.8,3.8,3.1,6,4.1
		c2.4,1,4.8,1.5,7.4,1.5s5-0.5,7.4-1.5c2.3-1,4.3-2.3,6-4.1c1.8-1.8,3.1-3.8,4.1-6c1-2.4,1.5-4.8,1.5-7.4s-0.5-5-1.5-7.4
		c-1-2.3-2.3-4.3-4.1-6c-1.8-1.8-3.8-3.1-6.1-4.1c-2.4-1-4.8-1.5-7.4-1.5s-5,0.5-7.4,1.5c-2.3,1-4.3,2.3-6,4.1
		c-1.8,1.8-3.1,3.8-4.1,6C4.4,18,3.9,20.4,3.9,23z M16.8,31.5c-0.2-0.3-0.3-0.6-0.3-1v-15c0-0.3,0.1-0.7,0.3-1
		c0.2-0.3,0.4-0.6,0.7-0.7c0.3-0.2,0.6-0.3,1-0.3c0.3,0,0.7,0.1,1,0.2l12.3,7.5c0.3,0.2,0.6,0.4,0.7,0.7c0.2,0.3,0.3,0.6,0.3,1
		c0,0.3-0.1,0.7-0.3,1c-0.2,0.3-0.4,0.6-0.7,0.7l-12.3,7.4c-0.3,0.2-0.7,0.3-1,0.3c-0.3,0-0.7-0.1-1-0.2
		C17.3,32.1,17,31.8,16.8,31.5z"/>
</g>
</svg>
