<?xml version="1.0" encoding="utf-8"?>
<!-- Generator: Adobe Illustrator 20.1.0, SVG Export Plug-In . SVG Version: 6.00 Build 0)  -->
<svg version="1.1" id="Layer_1" xmlns="http://www.w3.org/2000/svg" xmlns:xlink="http://www.w3.org/1999/xlink" x="0px" y="0px"
	 viewBox="0 0 46 46" style="enable-background:new 0 0 46 46;" xml:space="preserve">
<style type="text/css">
	.st0{enable-background:new    ;}
	.st1{fill:#2871B8;}
</style>
<g class="st0">
	<path class="st1" d="M7.4,7.5c2-2,4.4-3.6,7-4.7C17.1,1.7,20,1.1,23,1.1s5.8,0.6,8.6,1.7c2.6,1.1,5,2.7,7,4.7c2,2,3.6,4.3,4.7,7
		c1.1,2.7,1.7,5.6,1.7,8.6c0,3-0.6,5.8-1.7,8.5c-1.1,2.6-2.7,5-4.7,7c-2,2-4.3,3.6-7,4.7C28.8,44.4,25.9,45,23,45
		c-3,0-5.8-0.6-8.5-1.7c-2.6-1.1-5-2.7-7-4.7c-2-2-3.6-4.4-4.7-7C1.6,28.9,1,26.1,1,23.1c0-3,0.6-5.8,1.7-8.6
		C3.9,11.9,5.4,9.6,7.4,7.5L7.4,7.5z M5.4,30.5c1,2.3,2.3,4.3,4.1,6.1c1.8,1.8,3.8,3.1,6.1,4.1c2.4,1,4.9,1.5,7.5,1.5
		s5.1-0.5,7.4-1.5c2.3-1,4.3-2.3,6.1-4.1c1.8-1.8,3.1-3.8,4.1-6.1c1-2.4,1.5-4.8,1.5-7.4c0-2.6-0.5-5.1-1.5-7.4
		c-1-2.3-2.3-4.3-4.1-6.1c-1.8-1.8-3.8-3.1-6.1-4.1C28,4.5,25.6,4,23,4s-5.1,0.5-7.4,1.5c-2.3,1-4.3,2.3-6.1,4.1
		c-1.8,1.8-3.1,3.8-4.1,6.1c-1,2.4-1.5,4.8-1.5,7.4C3.9,25.7,4.4,28.2,5.4,30.5z M27.2,13.3l-8.5,9.8l8.5,9.8l-2.1,1.8L14.9,23.1
		l10.1-11.6L27.2,13.3z"/>
</g>
</svg>
